<svg width="310" height="310" viewBox="0 -2.97 310 310" xmlns="http://www.w3.org/2000/svg">
    <g data-name="Group 6">
        <path data-name="Path 28" d="M223.143 304.061a12.109 12.109 0 0 1-7.7-2.763l-80.593-66.3H29.097c-15.919 0-29.1-13.262-29.1-29.569V29.419A29.365 29.365 0 0 1 29.097 0H281.19C297.279 0 310 13.185 310 29.419v176.012C310 221.739 297.279 235 281.19 235H235v56.946a12 12 0 0 1-6.814 10.955 11.556 11.556 0 0 1-5.043 1.16ZM29.097 24a5.528 5.528 0 0 0-5.1 5.419v176.012c0 2.9 2.582 5.569 5.1 5.569h110.1a11.977 11.977 0 0 1 7.683 2.646l64.122 52.647v-43.4a11.949 11.949 0 0 1 12.141-11.891h58.049c2.59 0 4.81-2.772 4.81-5.569V29.419c0-2.777-2.173-5.419-4.81-5.419Z"/>
    </g>
</svg>